<?xml version="1.0" standalone="no"?>
<!DOCTYPE svg PUBLIC "-//W3C//DTD SVG 20010904//EN"
 "http://www.w3.org/TR/2001/REC-SVG-20010904/DTD/svg10.dtd">
<svg version="1.0" xmlns="http://www.w3.org/2000/svg"
 width="200pt" height="200pt" viewBox="0 0 500.000000 500.000000"
 preserveAspectRatio="xMidYMid meet">

<g transform="translate(0.000000,500.000000) scale(0.100000,-0.100000)"
fill="#000000" stroke="none">
<path d="M552 4739 c-115 -22 -208 -93 -259 -197 l-28 -57 -3 -1822 c-2 -1802
-2 -1822 18 -1875 28 -75 71 -130 134 -172 105 -70 20 -66 1548 -66 758 0
1378 -3 1378 -6 0 -3 -25 -47 -55 -98 -30 -50 -55 -104 -55 -119 0 -29 34 -67
60 -67 10 0 113 47 231 104 l214 103 208 -103 c115 -57 217 -104 227 -104 25
0 58 30 65 60 4 19 -8 48 -55 123 -33 54 -60 100 -60 102 0 3 67 5 148 5 173
0 239 14 318 66 63 42 106 97 134 172 20 53 20 73 18 1875 l-3 1822 -28 57
c-53 107 -143 175 -267 198 -65 12 -3825 12 -3888 -1z m3890 -143 c64 -19 113
-59 140 -114 22 -45 23 -59 26 -324 l4 -278 -2112 0 -2112 0 4 278 c3 265 4
279 26 324 26 53 76 95 136 114 63 19 3823 20 3888 0z m-3462 -931 l0 -75
-295 0 -295 0 0 75 0 75 295 0 295 0 0 -75z m730 0 l0 -75 -295 0 -295 0 0 75
0 75 295 0 295 0 0 -75z m720 0 l0 -75 -295 0 -295 0 0 75 0 75 295 0 295 0 0
-75z m728 25 c-4 -34 -13 -59 -28 -75 l-23 -25 -269 0 -268 0 0 75 0 75 296 0
297 0 -5 -50z m1450 -1387 c-3 -1361 -4 -1440 -21 -1478 -24 -53 -63 -93 -112
-116 -35 -16 -67 -19 -241 -19 l-201 0 -118 197 c-65 109 -125 206 -133 216
-16 17 -67 23 -89 9 -7 -4 -68 -100 -136 -213 l-123 -204 -1425 -3 c-1003 -2
-1435 0 -1462 8 -50 15 -106 65 -131 120 -21 45 -21 52 -24 1338 l-2 1292
1367 0 c1310 0 1370 1 1408 19 82 38 125 111 125 211 l0 60 660 0 660 0 -2
-1437z m-637 -1785 c6 -12 -33 3 -116 44 l-125 61 -124 -61 -124 -60 126 209
125 210 114 -193 c63 -106 119 -201 124 -210z"/>
<path d="M3615 4451 c-111 -28 -170 -107 -163 -221 5 -86 38 -138 111 -175
144 -71 307 27 307 185 0 57 -20 113 -53 148 -46 50 -139 79 -202 63z m89
-152 c52 -41 23 -129 -44 -129 -69 0 -97 80 -44 128 31 27 54 28 88 1z"/>
<path d="M4195 4451 c-111 -28 -170 -107 -163 -221 5 -88 36 -137 109 -174
112 -56 232 -16 290 96 35 69 20 179 -34 236 -46 50 -139 79 -202 63z m89
-152 c52 -41 21 -129 -46 -129 -67 0 -94 81 -42 128 31 27 54 28 88 1z"/>
<path d="M917 3289 c-78 -18 -145 -68 -189 -139 -36 -58 -40 -123 -36 -605 3
-452 4 -472 24 -515 29 -62 67 -105 123 -138 l46 -27 709 -5 709 -5 66 -197
c67 -200 87 -238 126 -238 43 0 71 39 170 239 l99 200 676 3 675 3 46 27 c56
33 94 76 123 138 20 43 21 63 24 515 3 338 0 485 -8 525 -21 93 -76 161 -165
202 l-50 23 -1565 2 c-892 0 -1581 -3 -1603 -8z m3186 -159 c69 -47 68 -40 65
-567 -3 -458 -4 -472 -24 -499 -11 -15 -33 -37 -48 -48 -27 -21 -40 -21 -721
-26 -476 -3 -697 -8 -705 -16 -6 -6 -43 -77 -83 -159 l-73 -148 -47 151 c-27
84 -54 155 -60 159 -7 5 -341 10 -744 13 -723 5 -732 5 -760 26 -15 11 -38 36
-50 54 l-23 33 0 470 c0 468 0 469 23 510 14 26 36 46 62 58 38 18 106 19
1596 16 l1555 -2 37 -25z"/>
<path d="M1728 2993 c-34 -38 -388 -617 -388 -633 0 -10 9 -28 19 -41 18 -23
26 -24 183 -29 l163 -5 3 -67 3 -68 69 0 70 0 0 70 0 70 70 0 70 0 0 70 0 70
-69 0 -70 0 -3 271 -3 271 -24 19 c-29 24 -73 25 -93 2z m-18 -438 l0 -125
-84 0 -85 0 77 125 c42 68 80 124 85 125 4 0 7 -56 7 -125z"/>
<path d="M2290 2999 c-92 -18 -184 -105 -210 -197 -5 -20 -10 -123 -10 -229 0
-169 2 -199 20 -246 41 -110 142 -177 265 -177 124 0 224 67 265 179 20 51 21
72 18 266 -3 229 -4 234 -70 317 -54 69 -177 108 -278 87z m150 -159 c53 -38
60 -70 60 -272 0 -200 -3 -211 -65 -259 -21 -17 -42 -23 -79 -23 -59 0 -96 20
-126 69 -18 29 -20 49 -20 215 0 147 3 189 16 216 17 35 54 68 89 77 33 9 96
-3 125 -23z"/>
<path d="M3103 2988 c-46 -51 -383 -607 -383 -632 0 -14 9 -35 20 -46 18 -18
33 -20 180 -20 l160 0 0 -70 0 -70 70 0 70 0 0 70 0 70 75 0 75 0 0 70 0 70
-75 0 -75 0 0 270 c0 257 -1 271 -20 290 -27 27 -71 26 -97 -2z m-26 -555 c-3
-2 -39 -3 -80 -1 l-76 3 77 124 77 124 3 -123 c1 -67 1 -125 -1 -127z"/>
<path d="M3520 2685 l0 -325 70 0 70 0 0 325 0 325 -70 0 -70 0 0 -325z"/>
<path d="M3520 2210 l0 -70 70 0 70 0 0 70 0 70 -70 0 -70 0 0 -70z"/>
<path d="M840 1333 c-8 -3 -35 -19 -59 -36 -59 -41 -96 -119 -88 -189 11 -90
72 -164 158 -188 21 -6 522 -10 1346 -10 l1313 0 0 70 0 70 -35 0 -35 0 0 75
0 75 344 0 345 0 20 -26 c24 -30 26 -43 10 -77 -16 -35 -50 -47 -134 -47 l-75
0 0 -71 0 -71 103 4 c85 3 109 8 145 28 76 43 126 150 107 227 -12 51 -56 113
-98 141 l-42 27 -1655 2 c-910 1 -1662 -1 -1670 -4z m2460 -208 l0 -75 -1197
0 c-659 0 -1208 3 -1221 6 -23 6 -52 50 -52 77 0 8 9 26 21 41 l20 26 1215 0
1214 0 0 -75z"/>
</g>
</svg>
