<?xml version="1.0" standalone="no"?>
<!DOCTYPE svg PUBLIC "-//W3C//DTD SVG 20010904//EN"
 "http://www.w3.org/TR/2001/REC-SVG-20010904/DTD/svg10.dtd">
<svg version="1.0" xmlns="http://www.w3.org/2000/svg"
 width="100pt" height="100pt" viewBox="0 0 500.000000 500.000000"
 preserveAspectRatio="xMidYMid meet">

<g transform="translate(0.000000,500.000000) scale(0.100000,-0.100000)"
fill="#000000" stroke="none">
<path d="M1875 4773 c-353 -41 -645 -247 -790 -556 -108 -228 -124 -498 -45
-733 211 -624 946 -870 1495 -501 78 53 200 175 254 255 169 251 215 566 124
857 -69 223 -236 430 -443 551 -167 97 -412 149 -595 127z"/>
<path d="M3766 3705 c-53 -19 -112 -79 -131 -133 -10 -32 -15 -85 -15 -178 l0
-132 -147 -4 c-162 -4 -198 -15 -255 -75 -109 -114 -58 -317 91 -362 21 -6 99
-11 174 -11 l135 0 4 -152 c3 -147 4 -155 31 -201 50 -84 148 -128 238 -107
70 17 126 61 155 123 22 47 24 65 24 195 l0 142 136 0 c75 0 154 5 175 11 149
45 200 248 91 362 -57 60 -93 71 -254 75 l-148 4 0 130 c0 159 -11 198 -70
259 -64 67 -146 86 -234 54z"/>
<path d="M1719 2675 c-548 -89 -1019 -426 -1262 -904 -104 -203 -155 -363
-182 -569 -21 -156 -21 -566 0 -645 49 -188 201 -338 386 -382 96 -22 2532
-22 2628 0 188 45 342 200 387 391 13 58 15 114 11 349 -4 251 -8 292 -31 401
-146 686 -657 1197 -1344 1345 -128 27 -464 35 -593 14z"/>
</g>
</svg>
