<?xml version="1.0" standalone="no"?>
<!DOCTYPE svg PUBLIC "-//W3C//DTD SVG 20010904//EN"
 "http://www.w3.org/TR/2001/REC-SVG-20010904/DTD/svg10.dtd">
<svg version="1.0" xmlns="http://www.w3.org/2000/svg"
 width="100pt" height="100pt" viewBox="0 0 500.000000 500.000000"
 preserveAspectRatio="xMidYMid meet">

<g transform="translate(0.000000,500.000000) scale(0.100000,-0.100000)"
fill="#000000" stroke="none">
<path d="M2254 4085 c-705 -103 -1274 -674 -1385 -1390 -18 -114 -15 -389 4
-506 78 -463 344 -866 743 -1125 190 -123 415 -208 634 -240 123 -18 390 -18
505 0 476 74 895 355 1156 777 289 466 316 1087 69 1578 -86 172 -159 276
-293 417 -243 257 -587 435 -944 489 -124 18 -362 18 -489 0z m501 -250 c168
-30 375 -114 525 -213 422 -280 664 -780 620 -1282 -33 -368 -198 -700 -466
-934 -109 -95 -202 -157 -329 -217 -216 -102 -360 -133 -605 -133 -242 0 -387
31 -600 131 -373 174 -660 523 -759 922 -67 269 -50 584 44 831 76 198 167
342 314 493 223 230 522 379 836 416 105 13 308 6 420 -14z"/>
<path d="M2230 2990 l0 -270 -265 0 -265 0 0 -265 0 -265 265 0 265 0 0 -270
0 -270 270 0 270 0 0 270 0 270 265 0 265 0 0 265 0 265 -265 0 -265 0 0 270
0 270 -270 0 -270 0 0 -270z"/>
</g>
</svg>
