<?xml version="1.0" standalone="no"?>
<!DOCTYPE svg PUBLIC "-//W3C//DTD SVG 20010904//EN"
 "http://www.w3.org/TR/2001/REC-SVG-20010904/DTD/svg10.dtd">
<svg version="1.0" xmlns="http://www.w3.org/2000/svg"
 width="35.000000pt" height="25.000000pt" viewBox="0 0 35.000000 25.000000"
 preserveAspectRatio="xMidYMid meet">

<g transform="translate(0.000000,25.000000) scale(0.100000,-0.100000)"
fill="#000000" stroke="none">
<path d="M27 224 c-4 -4 -7 -49 -7 -100 0 -82 2 -95 19 -104 29 -15 253 -13
274 3 15 10 17 27 15 107 l-3 95 -146 3 c-80 1 -148 -1 -152 -4z m283 -99 l0
-95 -135 0 -135 0 0 95 0 95 135 0 135 0 0 -95z"/>
<path d="M92 181 c-8 -4 -12 -19 -10 -32 2 -19 9 -24 33 -24 27 0 30 3 30 30
0 22 -5 31 -20 33 -11 1 -26 -2 -33 -7z m43 -31 c0 -22 -29 -18 -33 3 -3 14 1
18 15 15 10 -2 18 -10 18 -18z"/>
<path d="M228 143 c12 -2 32 -2 45 0 12 2 2 4 -23 4 -25 0 -35 -2 -22 -4z"/>
<path d="M215 100 c3 -5 13 -10 21 -10 8 0 14 5 14 10 0 6 -9 10 -21 10 -11 0
-17 -4 -14 -10z"/>
<path d="M70 85 c-7 -9 -10 -19 -6 -23 4 -4 12 1 17 11 13 22 55 22 68 0 5
-10 13 -15 17 -11 4 4 1 14 -6 23 -16 19 -74 19 -90 0z"/>
</g>
</svg>
