<?xml version="1.0" standalone="no"?>
<!DOCTYPE svg PUBLIC "-//W3C//DTD SVG 20010904//EN"
 "http://www.w3.org/TR/2001/REC-SVG-20010904/DTD/svg10.dtd">
<svg version="1.0" xmlns="http://www.w3.org/2000/svg"
 width="100pt" viewBox="0 0 500.000000 500.000000"
 preserveAspectRatio="xMidYMid meet">

<g transform="translate(0.000000,500.000000) scale(0.100000,-0.100000)"
fill="#000000" stroke="none">
<path d="M708 4463 c-15 -16 -49 -71 -78 -123 -28 -52 -59 -103 -68 -112 -11
-11 -56 -22 -132 -33 -115 -17 -172 -39 -184 -71 -3 -9 -6 -31 -6 -51 0 -31
12 -47 100 -138 55 -57 100 -109 100 -116 0 -8 -7 -57 -15 -109 -23 -149 -21
-177 17 -212 41 -38 53 -35 211 40 l122 58 126 -64 c137 -71 158 -74 205 -27
30 30 31 68 7 218 l-17 107 60 63 c111 114 144 158 144 189 0 42 -33 84 -72
92 -29 6 -249 46 -255 46 -2 0 -26 46 -54 102 -74 147 -92 168 -143 168 -33 0
-48 -6 -68 -27z"/>
<path d="M2218 4081 l-468 -6 -27 -27 c-38 -38 -37 -87 2 -128 l29 -30 1402 0
c1382 0 1402 0 1427 20 51 40 42 126 -16 157 -29 16 -106 17 -957 18 -509 1
-1135 -1 -1392 -4z"/>
<path d="M718 3079 c-10 -5 -42 -58 -72 -117 -31 -59 -61 -115 -69 -126 -10
-13 -47 -24 -145 -41 -73 -13 -144 -30 -157 -39 -28 -19 -42 -77 -27 -111 6
-13 53 -67 105 -122 l94 -98 -18 -95 c-10 -52 -18 -121 -18 -152 -1 -50 2 -59
26 -78 41 -32 95 -22 227 43 l113 55 79 -44 c120 -67 181 -88 215 -73 63 26
71 76 40 249 l-20 105 105 106 c92 94 104 110 104 141 0 72 -42 93 -237 119
l-88 12 -65 121 c-36 66 -73 129 -82 138 -20 20 -82 24 -110 7z"/>
<path d="M1770 2673 c-14 -3 -35 -14 -47 -26 -30 -27 -31 -94 -4 -128 l19 -24
1415 -3 1415 -2 21 26 c28 35 28 97 0 135 l-20 29 -1387 -1 c-763 -1 -1398 -4
-1412 -6z"/>
<path d="M740 1689 c-31 -12 -44 -30 -110 -149 -28 -52 -59 -102 -68 -111 -11
-10 -59 -22 -131 -33 -125 -18 -177 -41 -187 -82 -14 -54 4 -86 102 -186 94
-96 96 -99 91 -135 -19 -114 -30 -232 -23 -256 8 -35 61 -68 96 -61 14 3 79
32 144 64 l120 58 118 -59 c134 -67 174 -74 213 -34 31 30 32 76 6 228 -10 59
-15 107 -10 107 4 0 51 48 103 106 80 88 96 111 96 139 0 42 -31 81 -72 89
-27 6 -249 46 -255 46 -1 0 -28 50 -60 111 -82 160 -108 183 -173 158z"/>
<path d="M1863 1281 c-92 -5 -115 -9 -133 -26 -51 -46 -45 -115 13 -150 31
-19 61 -20 1412 -20 1296 0 1382 1 1412 18 60 32 63 124 5 164 -26 17 -88 18
-1312 19 -707 0 -1335 -2 -1397 -5z"/>
</g>
</svg>
