<?xml version="1.0" standalone="no"?>
<!DOCTYPE svg PUBLIC "-//W3C//DTD SVG 20010904//EN"
 "http://www.w3.org/TR/2001/REC-SVG-20010904/DTD/svg10.dtd">
<svg version="1.0" xmlns="http://www.w3.org/2000/svg"
 width="2385.000000pt" height="601.000000pt" viewBox="0 0 2385.000000 601.000000"
 preserveAspectRatio="xMidYMid meet">

<g transform="translate(0.000000,601.000000) scale(0.100000,-0.100000)"
fill="#000000" stroke="none">
<path d="M11253 5019 c5 -621 4 -979 -2 -977 -6 1 -92 125 -192 273 -314 466
-642 926 -1001 1404 -93 124 -175 229 -181 232 -15 8 -409 -19 -418 -29 -4 -4
12 -270 36 -592 115 -1519 165 -2197 165 -2224 l0 -29 68 6 c37 4 126 10 199
13 72 4 136 10 141 13 6 4 -11 362 -44 946 -29 517 -54 960 -54 984 l0 44 48
-64 c275 -365 929 -1319 1224 -1788 l58 -91 185 0 c140 0 187 3 190 13 6 16
42 2818 37 2835 -3 9 -59 12 -235 12 l-230 0 6 -981z m275 783 c18 -23 15 -49
-8 -72 -27 -27 -55 -25 -79 6 -27 34 -26 40 4 70 27 27 59 26 83 -4z m-1781
-58 c15 -24 15 -29 2 -53 -11 -20 -22 -26 -49 -26 -27 0 -38 6 -49 26 -13 24
-13 29 2 53 12 18 26 26 47 26 21 0 35 -8 47 -26z m189 -160 c27 -7 44 -42 33
-71 -8 -21 -37 -43 -58 -43 -18 0 -51 39 -51 60 0 19 32 60 48 60 4 0 17 -3
28 -6z m1590 -49 c14 -21 15 -31 6 -51 -14 -30 -33 -38 -67 -30 -62 16 -49
106 15 106 21 0 35 -8 46 -25z m-1774 -42 c22 -20 24 -66 3 -83 -8 -7 -27 -12
-42 -12 -50 0 -72 67 -31 96 29 20 47 20 70 -1z m348 -113 c32 -32 24 -75 -18
-91 -58 -22 -101 60 -50 95 30 21 44 20 68 -4z m1414 -95 c21 -16 24 -58 6
-80 -22 -27 -50 -28 -76 -4 -30 28 -30 44 1 74 27 28 42 30 69 10z m-1742 -62
c22 -20 23 -51 1 -75 -31 -35 -93 -10 -93 38 0 48 55 70 92 37z m478 -42 c14
-28 12 -52 -7 -73 -31 -34 -93 -11 -93 35 0 50 78 79 100 38z m1268 -163 c20
-20 15 -76 -9 -88 -52 -29 -107 26 -75 75 18 27 63 34 84 13z m-1134 -24 c41
-40 -4 -121 -53 -94 -30 16 -43 44 -32 73 15 38 58 49 85 21z m-586 -47 c18
-38 -5 -77 -46 -77 -35 0 -52 17 -52 51 0 61 73 80 98 26z m730 -149 c30 -30
3 -98 -39 -98 -23 0 -59 34 -59 57 0 42 68 71 98 41z m986 -47 c25 -28 17 -72
-16 -90 -25 -15 -29 -14 -52 8 -31 29 -33 54 -6 81 25 25 52 25 74 1z m-1706
-54 c30 -24 1 -97 -40 -97 -22 0 -58 34 -58 55 0 9 11 27 24 40 25 25 44 25
74 2z m856 -93 c18 -18 20 -47 6 -75 -15 -27 -64 -25 -84 3 -21 30 -20 44 4
68 24 24 53 26 74 4z m856 -133 c15 -30 12 -56 -10 -76 -46 -41 -116 29 -75
75 23 26 71 26 85 1z m-1698 -48 c10 -9 18 -26 18 -39 0 -55 -72 -72 -99 -23
-13 24 -13 29 2 53 20 30 52 34 79 9z m966 -9 c18 -12 22 -24 20 -52 -2 -30
-8 -38 -30 -46 -56 -20 -95 64 -46 98 28 20 28 20 56 0z m142 -204 c11 -11 20
-29 20 -40 0 -23 -33 -60 -55 -60 -21 0 -55 36 -55 58 0 29 29 58 63 61 4 1
16 -8 27 -19z m580 0 c11 -11 20 -29 20 -40 0 -23 -33 -60 -55 -60 -22 0 -55
37 -55 60 0 23 33 60 55 60 8 0 24 -9 35 -20z m-1684 -38 c13 -8 34 -46 34
-61 0 -16 -38 -51 -55 -51 -22 0 -55 37 -55 60 0 22 33 60 53 60 6 0 17 -4 23
-8z m1243 -174 c13 -23 13 -30 1 -53 -19 -35 -68 -32 -89 6 -13 24 -13 29 3
53 23 35 64 32 85 -6z m438 -46 c23 -14 25 -57 5 -82 -17 -21 -24 -23 -48 -15
-39 14 -54 57 -29 85 18 20 50 26 72 12z m-1649 -54 c17 -17 15 -64 -4 -82
-44 -45 -105 16 -74 75 12 22 59 26 78 7z m1334 -85 c23 -21 23 -55 -1 -77
-26 -24 -62 -17 -80 15 -13 24 -13 29 2 53 20 30 52 34 79 9z m304 -121 c37
-24 33 -81 -5 -102 -53 -28 -94 47 -51 90 21 21 38 25 56 12z m-1628 -58 c31
-22 30 -69 -3 -90 -23 -15 -27 -15 -50 0 -29 19 -33 60 -8 88 20 22 32 23 61
2z m1450 -16 c7 -7 12 -26 12 -43 0 -17 -5 -36 -12 -43 -28 -28 -88 0 -88 41
0 44 59 74 88 45z m184 -195 c20 -18 24 -73 6 -91 -17 -17 -48 -15 -70 5 -37
33 -13 92 41 102 3 1 13 -6 23 -16z m-1613 -59 c25 -32 26 -51 4 -76 -22 -25
-59 -23 -77 4 -22 31 -20 45 9 73 31 31 39 31 64 -1z"/>
<path d="M14515 5798 c-3 -7 -56 -438 -120 -958 -63 -520 -140 -1151 -171
-1403 -31 -252 -55 -459 -53 -461 7 -6 402 -57 406 -52 9 8 400 2811 393 2819
-4 4 -90 19 -191 32 -101 13 -201 27 -222 30 -25 4 -39 1 -42 -7z m233 -204
c42 -29 17 -104 -35 -104 -22 0 -53 38 -53 64 0 24 32 56 55 56 6 0 21 -7 33
-16z m-28 -264 c34 -34 20 -80 -27 -95 -17 -4 -29 1 -48 19 -31 31 -31 41 0
71 29 30 49 31 75 5z m-32 -263 c17 -13 15 -62 -4 -81 -22 -23 -60 -20 -78 6
-23 32 -20 54 10 77 25 19 45 19 72 -2z m-36 -264 c22 -20 23 -51 1 -75 -31
-35 -93 -10 -93 38 0 48 55 70 92 37z m-40 -260 c43 -39 -1 -120 -51 -93 -26
13 -44 47 -35 63 28 48 55 58 86 30z m-42 -263 c17 0 32 -57 21 -78 -25 -47
-101 -29 -101 23 0 30 36 69 57 61 8 -3 18 -6 23 -6z m-22 -272 c17 -17 15
-64 -4 -83 -24 -23 -66 -15 -83 16 -13 24 -13 29 2 53 19 28 63 36 85 14z
m-31 -274 c15 -24 15 -29 2 -53 -18 -32 -54 -39 -80 -15 -23 21 -24 51 -2 76
24 26 59 23 80 -8z m-45 -251 c27 -24 23 -69 -7 -89 -23 -15 -27 -15 -50 0
-33 21 -34 68 -3 90 28 20 37 20 60 -1z m-37 -257 c21 -15 25 -67 5 -90 -18
-23 -56 -20 -74 6 -22 31 -20 45 9 73 28 29 34 30 60 11z"/>
<path d="M5910 5414 c-277 -51 -484 -182 -629 -397 -114 -169 -169 -405 -142
-607 10 -73 492 -1974 504 -1986 2 -2 93 18 203 45 175 43 199 51 196 67 -2
11 -41 180 -88 378 -47 197 -83 364 -81 370 8 19 794 193 808 179 5 -5 43
-177 85 -383 42 -206 78 -377 80 -379 6 -7 392 63 401 73 9 8 -334 1889 -362
1988 -86 306 -334 548 -644 629 -74 20 -275 33 -331 23z m158 -177 c6 -5 12
-22 12 -38 0 -52 -53 -77 -92 -42 -53 48 22 125 80 80z m240 -53 c43 -30 21
-94 -33 -94 -36 0 -55 20 -55 59 0 19 34 51 55 51 6 0 21 -7 33 -16z m-514
-10 c19 -18 21 -65 4 -82 -30 -30 -98 -1 -98 41 0 48 61 74 94 41z m744 -142
c42 -53 -30 -121 -80 -75 -30 27 -23 69 16 90 23 13 46 7 64 -15z m-958 -12
c33 -33 20 -79 -27 -94 -17 -5 -29 -1 -48 18 -30 30 -31 36 -4 70 24 31 52 33
79 6z m532 -71 c86 -18 158 -58 224 -123 94 -94 104 -124 185 -524 39 -194 68
-359 66 -366 -3 -7 -92 -30 -208 -55 -112 -23 -293 -63 -401 -88 -109 -25
-204 -43 -212 -40 -8 3 -23 43 -34 94 -12 48 -49 205 -83 348 -56 237 -61 268
-57 347 4 75 9 96 42 162 92 186 285 285 478 245z m569 -130 c26 -26 21 -57
-13 -82 -25 -19 -28 -19 -52 -3 -30 19 -35 60 -9 88 21 24 48 23 74 -3z
m-1230 -40 c15 -29 -3 -67 -36 -75 -43 -11 -85 39 -65 77 23 43 77 42 101 -2z
m1293 -215 c18 -18 20 -47 6 -75 -15 -27 -64 -25 -84 3 -21 30 -20 44 4 68 24
24 53 26 74 4z m-1356 -20 c48 -33 8 -117 -48 -99 -45 14 -51 87 -7 105 30 12
30 12 55 -6z m1404 -241 c10 -9 18 -26 18 -39 0 -55 -72 -72 -99 -23 -13 24
-13 29 2 53 20 30 52 34 79 9z m-1344 -25 c19 -19 14 -63 -8 -83 -46 -41 -116
29 -75 75 20 22 64 27 83 8z m1394 -235 c20 -18 23 -45 8 -74 -15 -27 -64 -25
-84 3 -21 30 -20 44 4 68 24 24 47 25 72 3z m-1346 -11 c43 -28 30 -94 -19
-100 -36 -4 -57 13 -57 49 0 45 43 74 76 51z m1396 -249 c24 -21 23 -58 -2
-83 -26 -26 -36 -25 -65 5 -30 29 -31 49 -5 75 24 24 47 25 72 3z m-1318 -25
c20 -29 20 -47 -1 -70 -31 -34 -93 -11 -93 35 0 51 66 75 94 35z m1044 -30
c17 -17 15 -64 -4 -82 -28 -28 -62 -19 -83 22 -25 48 48 99 87 60z m-226 -73
c9 -19 7 -30 -6 -50 -19 -29 -42 -32 -74 -9 -50 35 -3 120 51 92 10 -5 23 -20
29 -33z m-244 -28 c17 -13 15 -62 -4 -81 -29 -30 -66 -18 -83 27 -9 24 -8 31
13 52 25 25 44 25 74 2z m-252 -45 c23 -15 35 -51 24 -72 -31 -58 -100 -39
-100 28 0 35 47 63 76 44z m1053 -74 c34 -60 -44 -112 -83 -56 -21 30 -20 44
5 69 26 26 59 21 78 -13z m-1308 -12 c15 -32 4 -73 -21 -81 -52 -17 -94 36
-65 81 22 33 71 33 86 0z m1349 -236 c36 -36 18 -90 -30 -90 -29 0 -60 30 -60
57 0 18 37 53 55 53 8 0 24 -9 35 -20z m-1298 -7 c25 -23 23 -68 -4 -87 -29
-20 -34 -20 -58 4 -24 24 -26 57 -3 82 20 22 41 23 65 1z m1348 -253 c11 -11
20 -29 20 -40 0 -21 -33 -60 -50 -60 -6 0 -22 11 -36 25 -27 27 -26 59 4 83
22 17 39 15 62 -8z m-1280 -10 c36 -36 18 -90 -30 -90 -29 0 -60 30 -60 57 0
18 37 53 55 53 8 0 24 -9 35 -20z m60 -252 c37 -40 21 -98 -26 -98 -52 0 -75
74 -32 104 29 21 33 20 58 -6z"/>
<path d="M17747 4953 c4 -137 8 -803 8 -1481 l0 -1233 40 -10 c22 -5 89 -25
150 -44 60 -19 112 -31 115 -27 3 5 54 87 114 183 457 731 978 1527 1388 2121
59 86 108 161 108 165 0 9 -425 153 -452 153 -20 0 -188 -254 -652 -985 -95
-148 -205 -324 -246 -390 -124 -202 -111 -295 -103 750 5 777 4 912 -8 921 -8
6 -95 33 -194 59 -99 25 -196 51 -215 56 -65 17 -62 33 -53 -238z m293 -43 c0
-8 -7 -26 -16 -38 -21 -30 -61 -26 -87 10 -19 25 -19 28 -4 52 9 13 27 26 39
28 26 5 68 -27 68 -52z m-12 -243 c17 -13 15 -57 -5 -79 -23 -26 -59 -23 -79
7 -38 59 27 116 84 72z m1322 -112 c7 -8 13 -26 13 -40 0 -14 -6 -32 -13 -40
-28 -33 -100 -6 -100 38 0 47 71 77 100 42z m-1330 -155 c4 0 13 -14 21 -31
12 -30 11 -33 -15 -55 -15 -13 -33 -24 -41 -24 -14 0 -55 46 -55 62 0 18 51
60 66 54 9 -3 19 -6 24 -6z m1170 -80 c27 -27 25 -55 -6 -79 -18 -14 -31 -18
-47 -12 -31 11 -49 49 -35 75 22 41 57 47 88 16z m-1160 -205 c7 -8 13 -26 13
-40 0 -35 -20 -55 -54 -55 -38 0 -64 37 -50 73 15 38 67 51 91 22z m1002 -22
c27 -24 23 -69 -8 -89 -24 -16 -27 -16 -52 3 -34 25 -39 56 -13 82 25 25 48
27 73 4z m-154 -229 c52 -36 5 -122 -53 -96 -14 6 -28 23 -31 38 -6 22 -2 32
20 51 32 27 35 28 64 7z m-850 -26 c7 -7 12 -27 12 -45 0 -42 -35 -63 -75 -45
-23 11 -30 27 -25 62 4 34 63 53 88 28z m704 -215 c34 -31 11 -93 -35 -93 -27
0 -57 28 -57 53 0 48 56 73 92 40z m-704 -65 c18 -18 14 -63 -8 -83 -45 -40
-109 20 -75 71 17 26 62 33 83 12z m554 -165 c37 -33 13 -95 -37 -95 -51 0
-72 55 -35 92 24 24 47 25 72 3z m-562 -113 c11 -11 20 -29 20 -40 0 -23 -33
-60 -55 -60 -20 0 -55 36 -55 55 0 18 43 65 60 65 5 0 19 -9 30 -20z m428
-155 c4 -31 -22 -65 -49 -65 -51 0 -66 84 -19 107 32 16 64 -3 68 -42z m-437
-115 c41 -23 14 -100 -35 -100 -30 0 -46 18 -46 51 0 48 38 71 81 49z m287
-103 c19 -39 -5 -77 -48 -77 -50 0 -69 66 -27 95 31 22 59 15 75 -18z m-272
-231 c-14 -55 -88 -56 -102 -1 -7 28 8 53 41 65 30 12 70 -29 61 -64z m124 5
c15 -30 12 -56 -9 -75 -27 -25 -63 -17 -79 17 -12 24 -11 31 2 53 21 30 70 33
86 5z m-150 -231 c34 -34 20 -80 -27 -95 -24 -7 -63 24 -63 50 0 18 43 65 60
65 5 0 19 -9 30 -20z"/>
<path d="M1955 4224 c-132 -52 -243 -98 -247 -102 -10 -10 -99 -486 -158 -846
-27 -164 -52 -301 -55 -304 -2 -3 -148 90 -322 206 -442 292 -653 424 -674
420 -33 -5 -498 -233 -491 -240 4 -3 77 -49 162 -101 350 -212 842 -525 1165
-742 130 -86 153 -106 172 -145 12 -25 137 -303 277 -618 140 -315 256 -576
259 -578 3 -3 70 22 149 56 78 34 165 71 191 83 35 14 47 25 44 36 -3 9 -89
214 -191 456 -103 242 -219 516 -258 610 l-71 169 12 86 c30 215 176 1008 260
1418 41 199 46 232 32 231 -9 0 -124 -43 -256 -95z m-5 -224 c11 -11 20 -29
20 -39 0 -19 -43 -61 -63 -61 -18 0 -57 42 -57 62 0 24 35 58 60 58 11 0 29
-9 40 -20z m-56 -279 c44 -48 -15 -122 -70 -87 -32 21 -33 69 -2 90 30 21 51
20 72 -3z m-52 -278 c33 -30 17 -84 -29 -98 -28 -8 -63 25 -63 59 0 25 32 56
59 56 8 0 23 -7 33 -17z m-1318 -59 c20 -20 20 -58 0 -78 -33 -33 -94 -9 -94
36 0 49 61 76 94 42z m238 -151 c21 -18 24 -66 6 -81 -29 -22 -57 -23 -77 -3
-27 27 -27 66 1 85 29 20 47 20 70 -1z m1030 -70 c20 -18 24 -63 6 -81 -29
-29 -98 -1 -98 40 0 23 34 58 57 58 9 0 25 -7 35 -17z m-794 -79 c48 -33 8
-117 -48 -99 -45 14 -51 87 -7 105 30 12 30 12 55 -6z m252 -176 c17 -31 10
-51 -26 -74 -28 -19 -68 3 -72 40 -8 63 67 88 98 34z m498 -21 c6 -6 13 -24
17 -37 14 -56 -76 -83 -102 -31 -12 25 -3 57 21 73 17 12 53 9 64 -5z m-270
-119 c7 -7 12 -27 12 -45 0 -57 -71 -73 -99 -22 -13 24 -13 29 2 53 19 28 63
36 85 14z m232 -163 c29 -35 7 -95 -34 -95 -33 0 -58 23 -58 53 0 36 19 57 52
57 15 0 33 -7 40 -15z m118 -277 c19 -19 14 -63 -9 -84 -18 -17 -23 -17 -46
-4 -35 20 -46 52 -27 79 17 23 63 28 82 9z m116 -274 c33 -32 10 -94 -35 -94
-21 0 -59 33 -59 53 0 46 62 73 94 41z m116 -274 c28 -28 26 -66 -4 -85 -19
-13 -29 -14 -45 -5 -46 24 -47 74 -3 99 24 15 29 14 52 -9z m129 -292 c34 -60
-44 -112 -83 -56 -21 30 -20 44 5 69 26 26 59 21 78 -13z"/>
<path d="M22296 3508 c-13 -29 -220 -474 -461 -988 -241 -514 -439 -942 -442
-951 -3 -12 8 -22 39 -37 24 -11 110 -52 192 -91 82 -39 153 -68 158 -63 5 5
88 170 184 368 97 197 313 638 480 978 167 341 304 625 304 631 0 13 -389 205
-415 205 -9 0 -25 -22 -39 -52z m191 -217 c20 -26 15 -59 -12 -77 -31 -20 -53
-15 -77 17 -17 22 -18 30 -8 48 21 40 70 46 97 12z m-121 -199 c6 -4 16 -16
22 -28 28 -54 -57 -103 -92 -52 -21 30 -20 44 4 68 21 21 47 25 66 12z m-86
-231 c14 -28 12 -52 -7 -73 -31 -34 -93 -11 -93 35 0 50 78 79 100 38z m-110
-211 c32 -32 24 -75 -18 -91 -58 -22 -101 60 -50 95 30 21 44 20 68 -4z m-102
-212 c20 -20 15 -76 -7 -88 -31 -16 -59 -12 -75 12 -21 30 -20 44 4 68 22 22
60 26 78 8z m-98 -227 c17 -32 11 -60 -15 -77 -52 -34 -111 31 -70 76 23 26
71 26 85 1z m-110 -211 c24 -24 25 -38 4 -68 -20 -28 -69 -30 -84 -3 -16 31
-12 59 12 75 30 21 44 20 68 -4z m-102 -212 c28 -28 1 -98 -38 -98 -28 0 -52
25 -52 55 0 45 59 74 90 43z"/>
<path d="M21296 1368 c-13 -29 -58 -127 -100 -217 -71 -153 -75 -164 -59 -177
10 -7 21 -14 25 -14 4 0 82 -36 173 -80 l166 -79 15 27 c61 112 194 398 190
409 -6 14 -350 183 -373 183 -7 0 -24 -24 -37 -52z m152 -230 c20 -20 14 -65
-10 -82 -28 -20 -43 -20 -62 0 -22 21 -20 70 2 83 23 14 55 14 70 -1z"/>
</g>
</svg>
