<?xml version="1.0" standalone="no"?>
<!DOCTYPE svg PUBLIC "-//W3C//DTD SVG 20010904//EN"
 "http://www.w3.org/TR/2001/REC-SVG-20010904/DTD/svg10.dtd">
<svg version="1.0" xmlns="http://www.w3.org/2000/svg"
 width="2440.000000pt" height="1704.000000pt" viewBox="0 0 2440.000000 1704.000000"
 preserveAspectRatio="xMidYMid meet">

<g transform="translate(0.000000,1704.000000) scale(0.100000,-0.100000)"
fill="#000000" stroke="none">
<path d="M11259 17018 c-2 -7 -2 -443 1 -968 3 -525 2 -961 -1 -969 -4 -9 -35
29 -90 110 -335 500 -660 960 -1032 1458 l-249 334 -139 -7 c-243 -11 -289
-17 -289 -35 0 -38 210 -2825 213 -2828 4 -4 352 17 385 23 18 4 22 11 22 38
0 19 -22 430 -50 913 -58 1041 -56 996 -44 1000 26 8 807 -1119 1249 -1804
l70 -108 187 -3 186 -2 6 102 c3 57 10 528 16 1048 6 520 13 1117 17 1328 l6
382 -230 0 c-176 0 -232 -3 -234 -12z m258 -173 c11 -8 23 -23 26 -35 6 -25
-28 -70 -54 -70 -25 0 -59 35 -59 60 0 22 33 60 53 60 7 0 22 -7 34 -15z
m-1775 -62 c38 -35 12 -93 -42 -93 -32 0 -50 23 -50 64 0 43 57 61 92 29z
m216 -179 c28 -19 29 -57 2 -84 -24 -24 -38 -25 -68 -4 -14 10 -22 26 -22 44
0 28 30 60 55 60 6 0 21 -7 33 -16z m1570 -27 c6 -5 12 -22 12 -38 0 -52 -53
-77 -92 -42 -53 48 22 125 80 80z m-1768 -57 c32 -32 25 -66 -18 -89 -36 -19
-72 9 -72 54 0 53 52 73 90 35z m349 -116 c12 -15 21 -31 21 -36 0 -15 -48
-58 -65 -58 -21 0 -55 36 -55 60 0 25 34 60 59 60 11 0 29 -12 40 -26z m1409
-90 c32 -22 30 -69 -4 -91 -24 -15 -29 -15 -53 -2 -34 19 -39 61 -12 88 25 25
39 26 69 5z m-1732 -69 c21 -33 6 -71 -31 -81 -34 -8 -53 0 -67 30 -16 36 11
76 52 76 21 0 35 -8 46 -25z m476 -50 c14 -32 -12 -75 -45 -75 -39 0 -59 22
-55 60 6 63 73 73 100 15z m1260 -152 c22 -20 23 -51 1 -75 -45 -50 -116 11
-83 73 13 24 57 25 82 2z m-1134 -19 c28 -19 28 -58 1 -85 -49 -49 -119 31
-72 83 20 22 42 23 71 2z m-596 -31 c36 -32 15 -93 -32 -93 -53 0 -79 53 -43
92 20 22 51 23 75 1z m740 -170 c34 -31 11 -93 -35 -93 -45 0 -76 67 -45 98
17 17 58 15 80 -5z m988 -43 c11 -11 20 -29 20 -40 0 -22 -33 -60 -53 -60 -27
0 -57 31 -57 60 0 18 8 34 22 44 30 21 44 20 68 -4z m-1696 -73 c15 -23 -12
-71 -43 -75 -46 -7 -78 52 -48 90 25 32 66 26 91 -15z m855 -88 c13 -24 13
-29 -2 -53 -12 -18 -26 -26 -45 -26 -35 0 -52 17 -52 51 0 60 70 79 99 28z
m853 -134 c14 -32 -12 -75 -46 -75 -55 0 -76 82 -27 107 30 14 57 2 73 -32z
m-1695 -41 c15 -24 15 -29 2 -53 -11 -20 -22 -26 -49 -26 -29 0 -36 5 -44 27
-24 67 52 111 91 52z m975 -18 c37 -55 -49 -118 -86 -64 -23 32 -20 54 10 77
21 17 30 19 48 9 11 -6 24 -16 28 -22z m130 -197 c16 -22 17 -29 7 -52 -7 -15
-23 -30 -36 -33 -54 -14 -87 68 -40 101 28 20 45 16 69 -16z m570 14 c26 -31
28 -51 7 -77 -24 -30 -45 -33 -71 -9 -22 20 -23 61 -1 85 20 23 46 23 65 1z
m-1674 -49 c38 -26 19 -104 -26 -104 -48 0 -70 76 -30 104 12 9 25 16 28 16 3
0 16 -7 28 -16z m1223 -144 c13 -7 19 -21 19 -43 0 -40 -15 -57 -50 -57 -33 0
-50 17 -50 51 0 48 38 71 81 49z m457 -72 c29 -29 4 -98 -35 -98 -26 0 -53 31
-53 60 0 33 17 50 50 50 14 0 31 -5 38 -12z m-1655 -56 c34 -30 8 -92 -39 -92
-23 0 -54 33 -54 58 0 20 49 64 63 56 6 -4 20 -14 30 -22z m1343 -87 c14 -21
15 -31 6 -51 -14 -29 -33 -38 -67 -30 -30 8 -42 47 -26 82 15 34 64 33 87 -1z
m302 -121 c32 -22 27 -73 -10 -93 -24 -14 -28 -14 -47 3 -25 23 -27 63 -4 88
20 22 32 23 61 2z m-1631 -56 c13 -12 23 -30 23 -40 0 -22 -34 -58 -55 -58
-22 0 -55 37 -55 60 0 22 33 60 52 60 6 0 22 -10 35 -22z m1445 -15 c36 -32
13 -93 -36 -93 -31 0 -46 18 -46 55 0 53 43 73 82 38z m188 -193 c38 -38 16
-100 -34 -100 -31 0 -46 18 -46 56 0 23 7 38 22 48 29 20 34 20 58 -4z m-1622
-46 c15 -10 22 -25 22 -48 0 -38 -15 -56 -46 -56 -50 0 -72 62 -34 100 24 24
29 24 58 4z"/>
<path d="M14517 16802 c-7 -39 -307 -2498 -328 -2684 -7 -59 -11 -109 -8 -112
5 -4 401 -57 404 -54 1 2 45 311 98 688 53 377 142 1010 198 1408 56 397 100
725 97 727 -2 2 -89 16 -193 29 -105 14 -206 28 -226 31 -36 5 -37 4 -42 -33z
m241 -178 c28 -19 29 -57 2 -84 -27 -27 -46 -25 -76 5 -18 19 -23 31 -19 48
14 45 54 59 93 31z m-36 -261 c36 -33 10 -103 -39 -103 -20 0 -53 38 -53 60 0
24 34 60 57 60 9 0 25 -7 35 -17z m-29 -271 c34 -30 9 -92 -38 -92 -54 0 -74
83 -26 107 26 12 34 10 64 -15z m-35 -254 c17 -17 15 -73 -2 -87 -24 -20 -69
-9 -85 20 -13 24 -13 29 2 53 19 28 63 36 85 14z m-38 -268 c11 -11 20 -29 20
-40 0 -23 -33 -60 -55 -60 -22 0 -55 37 -55 62 0 27 27 58 52 58 10 0 27 -9
38 -20z m-42 -266 c33 -23 27 -73 -11 -94 -27 -14 -29 -14 -53 13 -29 34 -29
37 -3 71 24 30 36 32 67 10z m-26 -271 c22 -20 23 -42 2 -71 -28 -40 -94 -17
-94 34 0 48 55 70 92 37z m-38 -259 c33 -33 12 -94 -32 -94 -36 0 -52 17 -52
55 0 17 5 36 12 43 17 17 54 15 72 -4z m-34 -264 c11 -11 20 -28 20 -38 0 -22
-35 -62 -55 -62 -22 0 -55 37 -55 60 0 23 33 60 55 60 8 0 24 -9 35 -20z m-38
-257 c36 -32 14 -103 -32 -103 -49 0 -69 76 -28 104 28 20 37 20 60 -1z"/>
<path d="M5868 16435 c-359 -68 -639 -349 -713 -714 -13 -61 -16 -116 -13
-205 4 -119 8 -133 253 -1086 136 -531 251 -968 254 -972 9 -10 394 85 398 97
2 6 -37 177 -86 380 -66 276 -86 373 -77 382 23 23 792 191 807 176 4 -5 41
-176 82 -381 41 -205 77 -375 81 -379 5 -6 394 62 402 70 5 4 -342 1905 -361
1977 -22 88 -93 231 -153 310 -120 159 -302 280 -497 330 -105 28 -275 34
-377 15z m205 -173 c50 -44 -22 -122 -75 -79 -34 27 -26 81 14 96 24 9 33 7
61 -17z m247 -52 c11 -11 20 -27 20 -35 0 -18 -44 -65 -60 -65 -16 0 -60 47
-60 65 0 21 36 55 60 55 11 0 29 -9 40 -20z m-518 -7 c36 -33 10 -93 -42 -93
-35 0 -50 17 -50 57 0 49 54 71 92 36z m732 -134 c31 -24 33 -52 6 -79 -34
-34 -80 -20 -95 27 -4 17 1 29 19 48 30 30 36 31 70 4z m-952 -16 c36 -33 10
-103 -39 -103 -20 0 -53 38 -53 60 0 24 34 60 57 60 9 0 25 -7 35 -17z m553
-78 c82 -22 150 -61 211 -122 89 -88 105 -134 185 -532 39 -194 67 -357 62
-361 -4 -4 -98 -27 -208 -50 -110 -22 -287 -61 -393 -86 -107 -24 -202 -44
-212 -44 -22 0 -13 -33 -105 354 -86 364 -91 398 -76 481 47 256 295 422 536
360z m547 -122 c27 -24 23 -69 -8 -89 -24 -16 -27 -16 -52 3 -34 25 -39 56
-13 82 25 25 48 27 73 4z m-1244 -19 c41 -28 18 -104 -31 -104 -63 0 -76 92
-17 113 23 8 24 8 48 -9z m1322 -256 c17 -31 10 -51 -26 -74 -28 -19 -68 3
-72 40 -8 63 67 88 98 34z m-1360 -8 c11 -11 20 -29 20 -40 0 -22 -33 -60 -53
-60 -27 0 -57 31 -57 60 0 18 8 34 22 44 30 21 44 20 68 -4z m1406 -245 c14
-21 15 -31 6 -51 -14 -29 -33 -38 -67 -30 -30 8 -42 47 -26 82 15 34 64 33 87
-1z m-1359 -19 c24 -21 26 -27 18 -52 -14 -39 -57 -54 -85 -29 -27 24 -26 70
2 89 29 21 32 20 65 -8z m1403 -236 c24 -24 25 -38 4 -68 -20 -28 -69 -30 -84
-3 -14 28 -12 52 7 73 21 24 48 23 73 -2z m-1338 -17 c24 -21 23 -58 -2 -83
-25 -25 -31 -25 -64 1 -30 23 -33 54 -9 81 20 22 51 23 75 1z m1374 -231 c6
-4 17 -18 24 -31 10 -20 9 -27 -8 -50 -10 -14 -26 -27 -35 -29 -21 -4 -57 33
-57 60 0 41 45 71 76 50z m-1314 -29 c20 -18 24 -63 6 -81 -7 -7 -24 -12 -38
-12 -34 0 -50 17 -50 55 0 53 43 73 82 38z m1050 -40 c22 -20 23 -51 1 -75
-45 -50 -116 11 -83 73 13 24 57 25 82 2z m-244 -39 c39 -27 21 -104 -25 -104
-49 0 -71 76 -31 104 12 9 25 16 28 16 3 0 16 -7 28 -16z m-226 -61 c23 -21
23 -55 -1 -77 -26 -24 -62 -17 -80 16 -32 57 32 106 81 61z m-240 -50 c43 -39
-1 -120 -51 -93 -21 11 -41 40 -41 59 0 17 38 51 57 51 9 0 25 -7 35 -17z
m1030 -50 c20 -18 24 -63 6 -81 -29 -29 -88 -2 -88 40 0 26 27 58 48 58 9 0
24 -7 34 -17z m-1300 -20 c22 -20 23 -51 1 -75 -45 -50 -116 11 -83 73 13 24
57 25 82 2z m1357 -249 c27 -34 26 -40 -3 -69 -51 -51 -117 24 -69 77 23 25
48 22 72 -8z m-1298 -5 c28 -28 22 -69 -14 -89 -27 -14 -29 -14 -53 13 -27 31
-25 62 4 85 22 17 39 15 63 -9z m1344 -253 c26 -26 25 -46 -3 -78 -20 -23 -37
-23 -62 2 -24 24 -26 57 -3 82 22 24 39 23 68 -6z m-1283 -3 c25 -23 23 -68
-4 -87 -29 -20 -34 -20 -58 4 -52 52 8 132 62 83z m78 -273 c14 -26 13 -46 -6
-64 -39 -39 -104 4 -90 59 12 47 72 50 96 5z"/>
<path d="M17753 16018 c12 -377 18 -1961 10 -2356 -4 -211 -5 -386 -1 -388 3
-2 72 -24 152 -48 l147 -43 18 26 c10 14 55 87 101 161 355 576 957 1498 1369
2095 71 104 127 193 123 197 -4 4 -106 39 -226 79 -154 50 -224 69 -235 62
-22 -14 -532 -802 -890 -1375 -51 -82 -96 -148 -99 -148 -4 0 -6 411 -4 914
l3 914 -53 15 c-112 33 -397 107 -409 107 -9 0 -10 -50 -6 -212z m273 -43 c18
-19 23 -31 19 -48 -14 -46 -63 -61 -97 -30 -38 34 -11 97 45 102 4 1 19 -10
33 -24z m7 -283 c34 -30 8 -92 -39 -92 -55 0 -74 82 -25 107 26 12 34 10 64
-15z m1319 -109 c36 -33 13 -93 -37 -93 -13 0 -31 7 -39 16 -19 18 -21 65 -4
82 17 17 58 15 80 -5z m-1324 -159 c32 -22 30 -69 -4 -91 -24 -15 -29 -15 -53
-2 -34 19 -39 61 -12 88 25 25 39 26 69 5z m1164 -71 c45 -40 -1 -120 -54 -92
-42 22 -50 59 -21 91 20 22 51 23 75 1z m-1160 -210 c36 -32 15 -93 -32 -93
-53 0 -79 53 -43 92 20 22 51 23 75 1z m1008 -23 c26 -26 25 -54 -2 -80 -26
-24 -37 -25 -66 -4 -26 18 -29 60 -5 86 21 24 48 23 73 -2z m-150 -230 c11
-11 20 -29 20 -40 0 -24 -34 -60 -57 -60 -49 0 -72 76 -31 104 30 21 44 20 68
-4z m-848 -34 c22 -32 -7 -86 -45 -86 -28 0 -57 28 -57 56 0 12 12 32 26 43
21 17 30 19 48 9 11 -6 24 -16 28 -22z m705 -212 c15 -24 15 -29 2 -53 -16
-29 -61 -40 -85 -20 -17 14 -19 70 -2 87 22 22 66 14 85 -14z m-715 -61 c22
-20 23 -42 2 -71 -28 -40 -94 -17 -94 34 0 48 55 70 92 37z m558 -163 c23 -23
24 -33 10 -60 -18 -34 -48 -44 -76 -25 -28 18 -32 59 -7 87 21 24 48 23 73 -2z
m-557 -122 c19 -25 19 -28 4 -52 -23 -34 -54 -42 -78 -20 -26 24 -25 69 4 89
29 20 45 16 70 -17z m419 -124 c25 -54 -40 -107 -82 -69 -27 25 -25 60 5 83
31 24 63 18 77 -14z m-430 -141 c22 -20 23 -42 2 -71 -18 -26 -50 -28 -76 -5
-22 20 -23 42 -2 71 18 26 50 28 76 5z m270 -80 c36 -32 15 -93 -32 -93 -39 0
-65 36 -51 73 15 39 52 48 83 20z m-284 -189 c39 -27 18 -104 -29 -104 -48 0
-67 76 -27 104 12 9 25 16 28 16 3 0 16 -7 28 -16z m148 -58 c13 -22 14 -29 2
-53 -24 -50 -98 -36 -98 19 0 54 67 77 96 34z m-152 -225 c25 -28 17 -72 -16
-90 -24 -14 -28 -14 -47 3 -27 24 -27 60 -1 86 25 25 42 25 64 1z"/>
<path d="M2170 15335 c-19 -8 -129 -51 -243 -96 -159 -62 -210 -86 -218 -102
-5 -12 -27 -121 -49 -242 -22 -121 -47 -254 -54 -295 -8 -41 -34 -193 -57
-337 -24 -145 -46 -263 -51 -263 -4 0 -160 100 -345 223 -391 259 -625 407
-642 407 -22 0 -501 -230 -501 -240 1 -3 101 -65 223 -139 273 -166 680 -424
1012 -643 l251 -164 274 -618 c150 -339 277 -619 281 -622 11 -6 373 152 377
165 2 7 -114 290 -257 631 l-262 619 31 183 c57 340 140 791 215 1166 41 206
75 376 75 378 0 8 -25 3 -60 -11z m-222 -301 c32 -22 30 -69 -4 -91 -24 -15
-29 -15 -53 -2 -32 18 -40 63 -15 90 21 23 42 24 72 3z m-48 -286 c31 -34 25
-64 -17 -87 -30 -15 -36 -14 -61 9 -27 26 -28 54 -2 80 26 26 54 25 80 -2z
m-50 -278 c27 -27 25 -55 -6 -79 -34 -27 -40 -26 -70 4 -18 19 -23 31 -19 48
15 47 61 61 95 27z m-1318 -57 c37 -33 10 -93 -43 -93 -50 0 -70 54 -36 98 13
17 57 15 79 -5z m238 -153 c32 -32 25 -66 -17 -89 -43 -22 -92 25 -74 72 16
41 59 49 91 17z m1032 -67 c47 -42 -6 -118 -63 -90 -30 16 -37 61 -13 88 21
23 51 24 76 2z m-792 -83 c11 -11 20 -29 20 -40 0 -24 -34 -60 -57 -60 -49 0
-72 76 -31 104 30 21 44 20 68 -4z m232 -157 c27 -24 23 -69 -8 -89 -24 -16
-27 -16 -52 3 -33 25 -38 47 -18 78 19 29 51 32 78 8z m510 -40 c20 -18 24
-63 6 -81 -30 -30 -98 -1 -98 41 0 48 56 73 92 40z m-270 -120 c22 -20 23 -51
1 -75 -45 -50 -116 11 -83 73 13 24 57 25 82 2z m230 -160 c35 -32 13 -93 -34
-93 -49 0 -74 56 -41 92 20 22 51 23 75 1z m121 -281 c39 -34 -2 -103 -53 -87
-45 14 -51 88 -7 104 23 9 32 7 60 -17z m121 -274 c20 -29 20 -47 -1 -70 -45
-50 -116 11 -83 73 15 27 64 25 84 -3z m111 -273 c14 -13 25 -31 25 -40 0 -19
-35 -55 -55 -55 -23 0 -55 37 -55 64 0 23 32 56 53 56 4 0 19 -11 32 -25z
m128 -287 c19 -25 19 -28 3 -52 -19 -30 -51 -34 -78 -9 -22 20 -23 56 -2 78
22 22 53 15 77 -17z"/>
<path d="M22306 14547 c-13 -28 -150 -324 -306 -657 -156 -333 -354 -758 -441
-944 -88 -187 -159 -346 -159 -353 0 -13 366 -196 382 -191 8 3 978 1975 978
1988 0 6 -48 29 -338 166 l-92 44 -24 -53z m180 -222 c18 -19 23 -31 19 -48
-15 -47 -61 -61 -95 -27 -38 38 -14 94 43 99 4 1 19 -10 33 -24z m-104 -212
c37 -33 13 -95 -37 -95 -49 0 -72 56 -38 94 20 22 51 23 75 1z m-95 -229 c15
-24 15 -29 2 -53 -27 -49 -101 -33 -101 22 0 59 66 80 99 31z m-119 -200 c42
-29 17 -104 -35 -104 -20 0 -53 38 -53 60 0 22 33 60 53 60 7 0 23 -7 35 -16z
m-96 -221 c35 -31 10 -93 -38 -93 -48 0 -70 55 -37 92 20 22 51 23 75 1z m-98
-225 c21 -30 20 -44 -4 -68 -24 -24 -53 -26 -74 -4 -19 18 -21 65 -4 82 20 20
65 14 82 -10z m-112 -205 c32 -29 18 -81 -25 -97 -21 -7 -67 33 -67 59 0 20
36 55 57 55 9 0 25 -7 35 -17z m-100 -220 c22 -20 23 -42 2 -71 -18 -26 -50
-28 -76 -5 -22 20 -23 51 -1 75 20 22 51 23 75 1z"/>
<path d="M12660 12946 l-1015 -92 -730 47 c-401 26 -732 45 -734 43 -3 -3 -8
-52 -11 -109 -4 -58 -9 -107 -12 -110 -6 -6 -797 -76 -826 -73 -23 3 -29 15
-68 132 -24 71 -46 131 -48 134 -3 2 -265 -84 -583 -191 l-578 -195 -750 -66
c-412 -37 -770 -69 -795 -72 l-45 -6 16 -191 c10 -106 16 -192 16 -193 -1 -1
-945 -320 -2097 -709 -1152 -389 -2098 -710 -2102 -714 -6 -5 3212 -9534 3224
-9546 2 -3 1048 348 2324 779 l2319 785 805 72 804 72 1131 -72 1130 -72 2200
-645 c1210 -355 2208 -646 2218 -647 17 -2 191 586 1436 4828 780 2657 1415
4833 1412 4837 -4 4 -868 260 -1921 569 -1053 309 -1919 565 -1923 569 -5 4
-3 87 3 184 7 98 10 180 7 183 -3 3 -377 29 -832 58 l-825 53 -756 222 c-416
122 -758 220 -760 217 -2 -2 -25 -76 -51 -163 -25 -87 -49 -162 -52 -166 -4
-5 -396 15 -417 22 -1 0 -7 72 -14 160 l-13 160 -36 -1 c-20 -1 -493 -42
-1051 -93z m942 -148 c2 -35 3 -64 2 -66 -2 -4 -812 47 -834 52 -8 2 -1 4 15
5 17 1 190 17 385 35 195 19 371 34 392 35 l36 1 4 -62z m4152 -954 c1832
-538 3334 -980 3338 -983 6 -5 -2726 -9338 -2737 -9349 -4 -4 -6647 1942
-6676 1956 -14 6 174 656 1355 4680 754 2569 1375 4672 1380 4672 5 0 1508
-439 3340 -976z m-5506 805 c1038 -66 1888 -122 1890 -124 3 -3 -700 -2416
-749 -2571 -9 -28 -15 -32 -60 -38 -131 -18 -320 -100 -437 -189 -140 -108
-264 -275 -321 -433 -49 -134 -64 -239 -58 -389 6 -141 24 -224 75 -344 18
-41 30 -76 29 -78 -2 -1 -41 -9 -88 -18 -446 -77 -775 -448 -805 -905 -28
-409 212 -796 596 -960 35 -16 66 -33 68 -38 2 -6 -204 -717 -458 -1581 -253
-863 -463 -1582 -466 -1598 l-5 -28 903 -264 c497 -145 910 -268 918 -273 9
-5 -10 -6 -45 -3 -33 3 -838 55 -1789 115 -951 61 -1731 112 -1732 113 -2 2
136 2185 306 4852 171 2667 310 4855 310 4862 0 7 7 13 16 13 8 0 864 -54
1902 -121z m-3122 19 l13 -37 -52 -6 c-72 -8 -270 -25 -282 -24 -5 0 58 24
140 54 83 29 154 52 159 51 5 -1 15 -18 22 -38z m1024 -131 c0 -8 -43 -683
-95 -1501 l-95 -1487 -100 -175 c-351 -610 -781 -1295 -1060 -1684 -45 -63
-85 -121 -87 -128 -9 -21 140 -195 720 -839 306 -341 326 -365 321 -395 -11
-84 -217 -3416 -212 -3429 5 -12 100 -21 554 -49 332 -21 537 -37 519 -42 -35
-8 -3095 -282 -3100 -276 -1 1 -198 2186 -437 4853 -427 4778 -434 4850 -413
4854 33 6 3386 308 3438 310 33 1 47 -3 47 -12z m6793 -187 c172 -11 321 -21
331 -23 17 -2 19 -10 17 -82 -1 -44 -4 -82 -7 -84 -3 -3 -501 139 -674 194
-44 13 -44 14 -12 14 19 1 174 -8 345 -19z m-10296 -1996 c72 -808 132 -1484
132 -1501 1 -29 -2 -33 -25 -33 -102 0 -437 -494 -709 -1045 -347 -702 -471
-1205 -362 -1473 137 -339 489 -622 839 -673 165 -24 338 8 472 87 32 19 60
33 62 32 1 -2 71 -766 154 -1698 84 -932 154 -1697 155 -1698 2 -2 463 37
1025 88 562 50 1024 90 1026 88 6 -7 -3781 -1285 -3788 -1279 -5 5 -2785 8212
-3071 9068 -28 84 -49 155 -45 158 9 9 3982 1353 3993 1351 6 -2 66 -625 142
-1472z"/>
<path d="M15108 12222 c-41 -43 -188 -213 -326 -378 -153 -183 -260 -304 -274
-308 -13 -3 -37 -6 -55 -6 -23 0 -33 -6 -38 -21 -4 -12 -3 -24 2 -28 11 -10
283 -104 287 -100 2 2 6 13 10 25 5 17 -3 29 -39 58 -25 21 -45 41 -45 46 0 6
128 170 159 202 6 7 339 -97 352 -111 4 -3 10 -68 13 -143 l7 -138 -65 0 c-37
0 -66 -4 -66 -9 0 -5 -3 -16 -6 -24 -4 -12 32 -27 163 -71 92 -31 172 -56 176
-56 4 0 11 10 16 21 6 17 0 29 -31 58 l-39 36 -25 480 c-13 264 -25 489 -26
499 -2 12 -17 24 -39 32 l-36 12 -75 -76z m28 -509 c-2 -2 -64 17 -139 43
l-136 46 132 160 132 161 7 -203 c4 -112 6 -205 4 -207z"/>
<path d="M14515 11211 c-130 -34 -214 -148 -203 -276 4 -42 30 -107 133 -319
71 -146 130 -266 131 -266 18 0 529 257 557 280 94 78 115 236 44 341 -60 90
-173 133 -276 107 -31 -8 -63 -18 -72 -22 -12 -5 -20 1 -29 23 -15 37 -80 98
-124 116 -43 18 -123 26 -161 16z"/>
<path d="M15710 8920 c-148 -31 -264 -82 -389 -171 -253 -178 -417 -473 -437
-788 -12 -173 29 -371 108 -526 22 -44 245 -501 494 -1015 250 -514 457 -934
462 -933 6 1 1301 626 1752 846 85 41 182 87 214 101 148 65 331 220 422 357
149 225 211 500 169 750 -82 495 -464 843 -970 885 -162 13 -366 -30 -534
-113 -74 -36 -96 -44 -100 -32 -18 56 -104 202 -160 271 -152 190 -364 319
-606 369 -119 25 -308 24 -425 -1z"/>
<path d="M17941 3911 c-147 -66 -281 -131 -301 -149 -74 -61 -104 -169 -75
-268 13 -47 27 -69 68 -109 75 -73 177 -95 276 -61 l41 15 16 -34 c36 -77 147
-145 235 -145 100 0 211 82 244 179 30 92 21 127 -110 424 -65 147 -121 267
-124 266 -3 0 -125 -54 -270 -118z"/>
<path d="M17346 2978 c-4 -18 3 -31 34 -59 22 -20 40 -41 40 -45 0 -40 51
-988 53 -989 1 -1 18 -7 37 -14 34 -11 35 -11 93 46 32 32 172 193 309 358
138 165 261 309 273 321 14 13 43 24 74 28 28 4 51 11 51 16 0 4 3 15 6 23 4
11 -29 26 -144 65 -148 49 -150 50 -156 28 -3 -11 -6 -24 -6 -27 0 -3 20 -20
45 -39 25 -19 45 -37 45 -42 0 -13 -163 -208 -174 -208 -7 0 -331 108 -342
114 -1 1 -5 63 -9 139 l-7 137 61 0 c57 0 62 2 72 26 5 15 8 28 7 29 -5 4
-343 115 -349 115 -4 0 -9 -10 -13 -22z m512 -628 c-5 -14 -249 -312 -253
-308 -1 2 -6 94 -9 205 l-7 202 136 -46 c75 -25 135 -49 133 -53z"/>
<path d="M10962 12353 c-28 -49 -123 -245 -212 -438 -90 -192 -169 -357 -177
-366 -7 -9 -31 -21 -52 -28 -35 -10 -50 -29 -51 -62 0 -4 42 -10 93 -13 50 -4
122 -9 160 -12 l67 -6 0 30 c0 27 -6 32 -56 52 -42 17 -54 27 -49 39 3 9 27
65 53 124 l47 109 145 -6 c80 -4 164 -9 186 -12 l41 -6 42 -130 c24 -71 41
-131 39 -132 -2 -2 -28 -9 -58 -17 -47 -12 -55 -18 -58 -40 -3 -25 0 -27 55
-32 32 -4 115 -9 186 -13 l127 -7 0 26 c0 21 -9 31 -41 47 -26 14 -45 33 -54
53 -7 18 -77 233 -156 480 l-144 447 -42 0 -41 0 -50 -87z m63 -163 c4 -19 27
-99 52 -178 25 -78 44 -144 42 -146 -5 -5 -272 14 -278 19 -2 3 19 55 47 117
28 62 65 144 82 183 33 74 41 75 55 5z"/>
<path d="M10875 11213 c-44 -23 -65 -44 -86 -85 -21 -41 -26 -127 -9 -159 9
-15 7 -20 -7 -25 -95 -28 -153 -91 -161 -173 -14 -150 130 -262 263 -207 26
11 35 12 35 3 0 -28 -60 -135 -95 -169 -36 -36 -45 -77 -14 -69 8 2 50 6 94 8
62 4 93 1 138 -15 51 -17 59 -17 66 -4 6 10 -2 29 -26 61 -38 49 -49 71 -68
144 -13 45 -12 48 3 41 73 -31 100 -37 144 -30 84 13 150 80 165 169 15 95
-76 217 -162 217 -30 0 -29 -2 -9 46 36 87 -4 202 -86 244 -48 25 -141 26
-185 3z"/>
<path d="M7628 11303 c-22 -6 -13 38 -116 -538 l-88 -489 -62 -20 c-55 -18
-62 -23 -62 -46 0 -15 2 -29 5 -32 4 -4 277 34 333 47 17 4 22 12 22 35 l0 30
-80 0 c-47 0 -80 4 -80 10 0 13 42 254 45 258 2 3 280 47 338 54 26 3 31 -4
92 -119 35 -68 61 -124 57 -126 -4 -2 -37 -12 -74 -22 -64 -17 -68 -20 -68
-46 0 -25 4 -29 28 -29 30 1 392 57 397 62 2 2 1 15 -2 31 -5 26 -8 27 -67 27
l-61 0 -240 460 c-237 454 -240 460 -270 459 -16 -1 -38 -3 -47 -6z m136 -402
c59 -113 106 -208 106 -211 0 -8 -299 -54 -306 -48 -2 3 15 111 38 241 23 131
45 234 49 230 5 -5 55 -100 113 -212z"/>
<path d="M7725 9992 c-33 -69 -91 -180 -128 -246 l-69 -119 200 -200 199 -199
96 194 c53 106 110 218 127 249 l31 56 -197 196 c-109 109 -198 197 -199 196
0 0 -27 -57 -60 -127z"/>
<path d="M3374 10378 c-30 -10 -32 -13 -43 -92 -6 -44 -20 -267 -31 -494 -11
-227 -24 -421 -30 -431 -5 -11 -23 -30 -40 -44 -26 -23 -29 -29 -20 -52 8 -21
14 -25 33 -19 52 16 269 92 272 96 2 2 2 14 -1 26 -5 19 -14 21 -73 24 -55 3
-66 6 -65 21 0 9 1 71 2 136 l2 119 168 56 c92 31 172 56 179 56 9 0 110 -113
171 -191 11 -14 6 -21 -33 -50 -43 -33 -59 -69 -35 -84 16 -10 350 105 350
121 0 32 -13 44 -50 44 -21 0 -46 3 -55 6 -9 4 -160 177 -336 385 -176 209
-323 379 -327 378 -4 -1 -21 -6 -38 -11z m65 -232 c12 -18 66 -87 121 -152 54
-65 96 -122 92 -125 -4 -4 -59 -23 -122 -44 -63 -21 -121 -40 -127 -43 -10 -3
-13 13 -13 60 0 124 13 338 21 338 4 0 17 -15 28 -34z"/>
<path d="M3773 9278 c6 -22 6 -22 -8 -4 -15 19 -16 19 -43 -7 -39 -37 -114
-166 -154 -263 -26 -65 -32 -93 -33 -156 0 -69 3 -80 30 -119 49 -70 107 -103
188 -107 62 -4 72 -2 118 26 44 28 49 29 49 12 0 -36 -22 -125 -37 -148 -13
-21 -13 -25 4 -37 15 -11 21 -11 33 0 32 28 102 55 169 67 57 10 71 16 71 30
0 10 -4 18 -8 18 -19 0 -102 63 -127 96 l-27 35 34 -6 c120 -23 228 88 228
233 0 80 -24 129 -89 180 -92 73 -313 172 -383 172 -16 0 -19 -5 -15 -22z"/>
<path d="M21309 12408 c-42 -82 -179 -381 -179 -390 0 -5 33 -24 73 -42 39
-19 123 -59 186 -90 62 -31 114 -56 116 -56 4 0 215 430 215 437 0 6 -368 183
-380 183 -5 0 -19 -19 -31 -42z m153 -253 c26 -57 -45 -113 -84 -65 -22 28
-23 48 -1 72 24 27 71 24 85 -7z"/>
</g>
</svg>
