<?xml version="1.0" standalone="no"?>
<!DOCTYPE svg PUBLIC "-//W3C//DTD SVG 20010904//EN"
 "http://www.w3.org/TR/2001/REC-SVG-20010904/DTD/svg10.dtd">
<svg version="1.0" xmlns="http://www.w3.org/2000/svg"
 width="90pt"  viewBox="0 0 2211.000000 1305.000000"
 preserveAspectRatio="xMidYMid meet">

<g transform="translate(0.000000,1305.000000) scale(0.100000,-0.100000)"
fill="#000000" stroke="none">
<path d="M10370 12946 l-1015 -92 -730 47 c-401 26 -732 45 -734 43 -3 -3 -8
-52 -11 -109 -4 -58 -9 -107 -12 -110 -6 -6 -797 -76 -826 -73 -23 3 -29 15
-68 132 -24 71 -46 131 -48 134 -3 2 -265 -84 -583 -191 l-578 -195 -750 -66
c-412 -37 -770 -69 -795 -72 l-45 -6 16 -191 c10 -106 16 -192 16 -193 -1 -1
-945 -320 -2097 -709 -1152 -389 -2098 -710 -2102 -714 -6 -5 3212 -9534 3224
-9546 2 -3 1048 348 2324 779 l2319 785 805 72 804 72 1131 -72 1130 -72 2200
-645 c1210 -355 2208 -646 2218 -647 17 -2 191 586 1436 4828 780 2657 1415
4833 1412 4837 -4 4 -868 260 -1921 569 -1053 309 -1919 565 -1923 569 -5 4
-3 87 3 184 7 98 10 180 7 183 -3 3 -377 29 -832 58 l-825 53 -756 222 c-416
122 -758 220 -760 217 -2 -2 -25 -76 -51 -163 -25 -87 -49 -162 -52 -166 -4
-5 -396 15 -417 22 -1 0 -7 72 -14 160 l-13 160 -36 -1 c-20 -1 -493 -42
-1051 -93z m942 -148 c2 -35 3 -64 2 -66 -2 -4 -812 47 -834 52 -8 2 -1 4 15
5 17 1 190 17 385 35 195 19 371 34 392 35 l36 1 4 -62z m4152 -954 c1832
-538 3334 -980 3338 -983 6 -5 -2726 -9338 -2737 -9349 -4 -4 -6647 1942
-6676 1956 -14 6 174 656 1355 4680 754 2569 1375 4672 1380 4672 5 0 1508
-439 3340 -976z m-5506 805 c1038 -66 1888 -122 1890 -124 3 -3 -700 -2416
-749 -2571 -9 -28 -15 -32 -60 -38 -131 -18 -320 -100 -437 -189 -140 -108
-264 -275 -321 -433 -49 -134 -64 -239 -58 -389 6 -141 24 -224 75 -344 18
-41 30 -76 29 -78 -2 -1 -41 -9 -88 -18 -446 -77 -775 -448 -805 -905 -28
-409 212 -796 596 -960 35 -16 66 -33 68 -38 2 -6 -204 -717 -458 -1581 -253
-863 -463 -1582 -466 -1598 l-5 -28 903 -264 c497 -145 910 -268 918 -273 9
-5 -10 -6 -45 -3 -33 3 -838 55 -1789 115 -951 61 -1731 112 -1732 113 -2 2
136 2185 306 4852 171 2667 310 4855 310 4862 0 7 7 13 16 13 8 0 864 -54
1902 -121z m-3122 19 l13 -37 -52 -6 c-72 -8 -270 -25 -282 -24 -5 0 58 24
140 54 83 29 154 52 159 51 5 -1 15 -18 22 -38z m1024 -131 c0 -8 -43 -683
-95 -1501 l-95 -1487 -100 -175 c-351 -610 -781 -1295 -1060 -1684 -45 -63
-85 -121 -87 -128 -9 -21 140 -195 720 -839 306 -341 326 -365 321 -395 -11
-84 -217 -3416 -212 -3429 5 -12 100 -21 554 -49 332 -21 537 -37 519 -42 -35
-8 -3095 -282 -3100 -276 -1 1 -198 2186 -437 4853 -427 4778 -434 4850 -413
4854 33 6 3386 308 3438 310 33 1 47 -3 47 -12z m6793 -187 c172 -11 321 -21
331 -23 17 -2 19 -10 17 -82 -1 -44 -4 -82 -7 -84 -3 -3 -501 139 -674 194
-44 13 -44 14 -12 14 19 1 174 -8 345 -19z m-10296 -1996 c72 -808 132 -1484
132 -1501 1 -29 -2 -33 -25 -33 -102 0 -437 -494 -709 -1045 -347 -702 -471
-1205 -362 -1473 137 -339 489 -622 839 -673 165 -24 338 8 472 87 32 19 60
33 62 32 1 -2 71 -766 154 -1698 84 -932 154 -1697 155 -1698 2 -2 463 37
1025 88 562 50 1024 90 1026 88 6 -7 -3781 -1285 -3788 -1279 -5 5 -2785 8212
-3071 9068 -28 84 -49 155 -45 158 9 9 3982 1353 3993 1351 6 -2 66 -625 142
-1472z"/>
<path d="M12818 12222 c-41 -43 -188 -213 -326 -378 -153 -183 -260 -304 -274
-308 -13 -3 -37 -6 -55 -6 -23 0 -33 -6 -38 -21 -4 -12 -3 -24 2 -28 11 -10
283 -104 287 -100 2 2 6 13 10 25 5 17 -3 29 -39 58 -25 21 -45 41 -45 46 0 6
128 170 159 202 6 7 339 -97 352 -111 4 -3 10 -68 13 -143 l7 -138 -65 0 c-37
0 -66 -4 -66 -9 0 -5 -3 -16 -6 -24 -4 -12 32 -27 163 -71 92 -31 172 -56 176
-56 4 0 11 10 16 21 6 17 0 29 -31 58 l-39 36 -25 480 c-13 264 -25 489 -26
499 -2 12 -17 24 -39 32 l-36 12 -75 -76z m28 -509 c-2 -2 -64 17 -139 43
l-136 46 132 160 132 161 7 -203 c4 -112 6 -205 4 -207z"/>
<path d="M12225 11211 c-130 -34 -214 -148 -203 -276 4 -42 30 -107 133 -319
71 -146 130 -266 131 -266 18 0 529 257 557 280 94 78 115 236 44 341 -60 90
-173 133 -276 107 -31 -8 -63 -18 -72 -22 -12 -5 -20 1 -29 23 -15 37 -80 98
-124 116 -43 18 -123 26 -161 16z"/>
<path d="M13420 8920 c-148 -31 -264 -82 -389 -171 -253 -178 -417 -473 -437
-788 -12 -173 29 -371 108 -526 22 -44 245 -501 494 -1015 250 -514 457 -934
462 -933 6 1 1301 626 1752 846 85 41 182 87 214 101 148 65 331 220 422 357
149 225 211 500 169 750 -82 495 -464 843 -970 885 -162 13 -366 -30 -534
-113 -74 -36 -96 -44 -100 -32 -18 56 -104 202 -160 271 -152 190 -364 319
-606 369 -119 25 -308 24 -425 -1z"/>
<path d="M15651 3911 c-147 -66 -281 -131 -301 -149 -74 -61 -104 -169 -75
-268 13 -47 27 -69 68 -109 75 -73 177 -95 276 -61 l41 15 16 -34 c36 -77 147
-145 235 -145 100 0 211 82 244 179 30 92 21 127 -110 424 -65 147 -121 267
-124 266 -3 0 -125 -54 -270 -118z"/>
<path d="M15056 2978 c-4 -18 3 -31 34 -59 22 -20 40 -41 40 -45 0 -40 51
-988 53 -989 1 -1 18 -7 37 -14 34 -11 35 -11 93 46 32 32 172 193 309 358
138 165 261 309 273 321 14 13 43 24 74 28 28 4 51 11 51 16 0 4 3 15 6 23 4
11 -29 26 -144 65 -148 49 -150 50 -156 28 -3 -11 -6 -24 -6 -27 0 -3 20 -20
45 -39 25 -19 45 -37 45 -42 0 -13 -163 -208 -174 -208 -7 0 -331 108 -342
114 -1 1 -5 63 -9 139 l-7 137 61 0 c57 0 62 2 72 26 5 15 8 28 7 29 -5 4
-343 115 -349 115 -4 0 -9 -10 -13 -22z m512 -628 c-5 -14 -249 -312 -253
-308 -1 2 -6 94 -9 205 l-7 202 136 -46 c75 -25 135 -49 133 -53z"/>
<path d="M8672 12353 c-28 -49 -123 -245 -212 -438 -90 -192 -169 -357 -177
-366 -7 -9 -31 -21 -52 -28 -35 -10 -50 -29 -51 -62 0 -4 42 -10 93 -13 50 -4
122 -9 160 -12 l67 -6 0 30 c0 27 -6 32 -56 52 -42 17 -54 27 -49 39 3 9 27
65 53 124 l47 109 145 -6 c80 -4 164 -9 186 -12 l41 -6 42 -130 c24 -71 41
-131 39 -132 -2 -2 -28 -9 -58 -17 -47 -12 -55 -18 -58 -40 -3 -25 0 -27 55
-32 32 -4 115 -9 186 -13 l127 -7 0 26 c0 21 -9 31 -41 47 -26 14 -45 33 -54
53 -7 18 -77 233 -156 480 l-144 447 -42 0 -41 0 -50 -87z m63 -163 c4 -19 27
-99 52 -178 25 -78 44 -144 42 -146 -5 -5 -272 14 -278 19 -2 3 19 55 47 117
28 62 65 144 82 183 33 74 41 75 55 5z"/>
<path d="M8585 11213 c-44 -23 -65 -44 -86 -85 -21 -41 -26 -127 -9 -159 9
-15 7 -20 -7 -25 -95 -28 -153 -91 -161 -173 -14 -150 130 -262 263 -207 26
11 35 12 35 3 0 -28 -60 -135 -95 -169 -36 -36 -45 -77 -14 -69 8 2 50 6 94 8
62 4 93 1 138 -15 51 -17 59 -17 66 -4 6 10 -2 29 -26 61 -38 49 -49 71 -68
144 -13 45 -12 48 3 41 73 -31 100 -37 144 -30 84 13 150 80 165 169 15 95
-76 217 -162 217 -30 0 -29 -2 -9 46 36 87 -4 202 -86 244 -48 25 -141 26
-185 3z"/>
<path d="M5338 11303 c-22 -6 -13 38 -116 -538 l-88 -489 -62 -20 c-55 -18
-62 -23 -62 -46 0 -15 2 -29 5 -32 4 -4 277 34 333 47 17 4 22 12 22 35 l0 30
-80 0 c-47 0 -80 4 -80 10 0 13 42 254 45 258 2 3 280 47 338 54 26 3 31 -4
92 -119 35 -68 61 -124 57 -126 -4 -2 -37 -12 -74 -22 -64 -17 -68 -20 -68
-46 0 -25 4 -29 28 -29 30 1 392 57 397 62 2 2 1 15 -2 31 -5 26 -8 27 -67 27
l-61 0 -240 460 c-237 454 -240 460 -270 459 -16 -1 -38 -3 -47 -6z m136 -402
c59 -113 106 -208 106 -211 0 -8 -299 -54 -306 -48 -2 3 15 111 38 241 23 131
45 234 49 230 5 -5 55 -100 113 -212z"/>
<path d="M5435 9992 c-33 -69 -91 -180 -128 -246 l-69 -119 200 -200 199 -199
96 194 c53 106 110 218 127 249 l31 56 -197 196 c-109 109 -198 197 -199 196
0 0 -27 -57 -60 -127z"/>
<path d="M1084 10378 c-30 -10 -32 -13 -43 -92 -6 -44 -20 -267 -31 -494 -11
-227 -24 -421 -30 -431 -5 -11 -23 -30 -40 -44 -26 -23 -29 -29 -20 -52 8 -21
14 -25 33 -19 52 16 269 92 272 96 2 2 2 14 -1 26 -5 19 -14 21 -73 24 -55 3
-66 6 -65 21 0 9 1 71 2 136 l2 119 168 56 c92 31 172 56 179 56 9 0 110 -113
171 -191 11 -14 6 -21 -33 -50 -43 -33 -59 -69 -35 -84 16 -10 350 105 350
121 0 32 -13 44 -50 44 -21 0 -46 3 -55 6 -9 4 -160 177 -336 385 -176 209
-323 379 -327 378 -4 -1 -21 -6 -38 -11z m65 -232 c12 -18 66 -87 121 -152 54
-65 96 -122 92 -125 -4 -4 -59 -23 -122 -44 -63 -21 -121 -40 -127 -43 -10 -3
-13 13 -13 60 0 124 13 338 21 338 4 0 17 -15 28 -34z"/>
<path d="M1483 9278 c6 -22 6 -22 -8 -4 -15 19 -16 19 -43 -7 -39 -37 -114
-166 -154 -263 -26 -65 -32 -93 -33 -156 0 -69 3 -80 30 -119 49 -70 107 -103
188 -107 62 -4 72 -2 118 26 44 28 49 29 49 12 0 -36 -22 -125 -37 -148 -13
-21 -13 -25 4 -37 15 -11 21 -11 33 0 32 28 102 55 169 67 57 10 71 16 71 30
0 10 -4 18 -8 18 -19 0 -102 63 -127 96 l-27 35 34 -6 c120 -23 228 88 228
233 0 80 -24 129 -89 180 -92 73 -313 172 -383 172 -16 0 -19 -5 -15 -22z"/>
</g>
</svg>
