<?xml version="1.0" standalone="no"?>
<!DOCTYPE svg PUBLIC "-//W3C//DTD SVG 20010904//EN"
 "http://www.w3.org/TR/2001/REC-SVG-20010904/DTD/svg10.dtd">
<svg version="1.0" xmlns="http://www.w3.org/2000/svg"
 width="100pt" height="100pt" viewBox="0 0 500.000000 500.000000"
 preserveAspectRatio="xMidYMid meet">

<g transform="translate(0.000000,500.000000) scale(0.100000,-0.100000)"
fill="#000000" stroke="none">
<path d="M2230 4705 c-627 -71 -1194 -394 -1575 -900 -106 -141 -152 -217
-236 -389 -257 -526 -298 -1138 -112 -1707 45 -140 146 -359 223 -484 77 -126
213 -298 325 -410 197 -198 366 -320 616 -445 646 -320 1398 -318 2040 6 251
127 412 245 619 454 253 255 444 580 553 940 88 291 115 589 82 900 -23 225
-72 417 -160 632 -56 135 -81 186 -159 313 -203 331 -466 590 -809 794 -127
77 -258 135 -425 190 -320 107 -654 143 -982 106z m1195 -1071 c18 -8 87 -70
153 -138 134 -137 148 -164 117 -229 -10 -21 -207 -225 -473 -489 l-457 -453
-197 -64 -196 -65 -40 18 c-29 13 -45 29 -58 57 l-17 40 63 197 64 197 451
454 c502 506 511 513 590 475z m-665 -319 l0 -115 -604 0 -604 0 -31 -29 -31
-29 0 -827 0 -827 31 -29 31 -29 823 0 823 0 31 31 31 31 0 604 0 604 115 0
116 0 -3 -617 -3 -618 -29 -62 c-42 -91 -114 -156 -202 -183 -68 -20 -81 -21
-904 -18 l-835 3 -50 23 c-65 30 -148 112 -177 176 l-23 51 -3 820 c-3 851 -1
898 38 975 39 76 144 152 233 170 23 4 309 8 635 9 l592 1 0 -115z"/>
</g>
</svg>
