<?xml version="1.0" standalone="no"?>
<!DOCTYPE svg PUBLIC "-//W3C//DTD SVG 20010904//EN"
 "http://www.w3.org/TR/2001/REC-SVG-20010904/DTD/svg10.dtd">
<svg version="1.0" xmlns="http://www.w3.org/2000/svg"
 width="100pt" height="100pt" viewBox="0 0 500.000000 500.000000"
 preserveAspectRatio="xMidYMid meet">

<g transform="translate(0.000000,500.000000) scale(0.100000,-0.100000)"
fill="#000000" stroke="none">
<path d="M670 3946 c-131 -49 -226 -129 -278 -236 -25 -50 -34 -87 -42 -160
-12 -118 -13 -2156 -1 -2291 11 -123 42 -192 125 -275 71 -71 148 -111 237
-125 41 -6 707 -9 1840 -7 l1775 3 75 37 c97 48 167 121 217 225 l37 78 3
1120 c2 630 -1 1168 -6 1231 -8 88 -15 121 -37 164 -43 84 -126 164 -218 210
l-79 40 -1807 -1 c-1456 0 -1813 -3 -1841 -13z m3545 -473 c38 -5 51 -12 67
-37 26 -42 21 -128 -11 -159 l-22 -22 -642 -3 c-423 -2 -654 0 -678 7 -26 8
-40 20 -52 46 -28 59 -21 101 26 153 l20 22 622 0 c342 0 644 -3 670 -7z
m-2480 -182 c149 -53 277 -200 310 -358 19 -89 19 -224 0 -298 -33 -127 -143
-273 -243 -324 -222 -113 -486 -19 -601 213 -42 86 -61 167 -61 261 0 148 38
254 130 365 125 149 295 201 465 141z m2522 -311 c50 -33 57 -138 12 -186
l-22 -24 -662 0 -661 0 -28 29 c-59 61 -35 176 39 192 17 4 316 6 665 5 541
-1 638 -3 657 -16z m-18 -471 c76 -27 82 -171 8 -210 -26 -15 -1086 -26 -1232
-14 -77 6 -92 10 -115 34 -54 53 -43 157 20 188 34 17 1271 19 1319 2z m-2809
-397 c106 -36 234 -35 343 2 42 14 86 26 96 26 32 0 467 -232 557 -298 76 -56
97 -183 47 -283 -23 -44 -37 -59 -79 -80 l-51 -26 -734 -8 -734 -7 -40 22
c-95 55 -126 106 -128 215 -3 111 14 136 153 219 189 114 464 257 480 250 8
-4 49 -18 90 -32z m2844 -110 c44 -64 28 -160 -30 -182 -36 -14 -1049 -24
-1208 -13 -119 9 -130 12 -147 34 -27 35 -34 87 -18 134 11 32 21 42 49 52 26
9 208 12 681 12 l646 1 27 -38z m-22 -460 c53 -31 65 -113 24 -173 l-25 -36
-513 -6 c-282 -3 -584 -2 -671 1 -150 7 -160 8 -178 30 -38 47 -34 149 8 183
25 21 231 26 813 21 439 -4 519 -7 542 -20z"/>
</g>
</svg>
