<?xml version="1.0" standalone="no"?>
<!DOCTYPE svg PUBLIC "-//W3C//DTD SVG 20010904//EN"
 "http://www.w3.org/TR/2001/REC-SVG-20010904/DTD/svg10.dtd">
<svg version="1.0" xmlns="http://www.w3.org/2000/svg"
 width="100pt" height="100pt" viewBox="0 0 500.000000 500.000000"
 preserveAspectRatio="xMidYMid meet">

<g transform="translate(0.000000,500.000000) scale(0.100000,-0.100000)"
fill="#000000" stroke="none">
<path d="M274 4490 c-12 -5 -29 -19 -38 -32 -15 -20 -16 -208 -16 -2100 l0
-2077 24 -28 24 -28 2074 -3 c1579 -2 2080 1 2102 10 59 24 56 -107 56 2126 0
1474 -3 2058 -11 2081 -23 66 140 61 -2131 60 -1135 0 -2073 -4 -2084 -9z
m4026 -2130 l0 -1950 -1945 0 -1945 0 0 1950 0 1950 1945 0 1945 0 0 -1950z"/>
<path d="M814 3990 c-51 -20 -54 -37 -54 -295 l0 -241 28 -27 28 -27 1541 0
1542 0 28 24 28 24 3 233 c2 164 0 241 -9 261 -25 62 76 58 -1591 57 -838 0
-1533 -4 -1544 -9z m2956 -295 l0 -105 -1410 0 -1410 0 0 105 0 105 1410 0
1410 0 0 -105z"/>
<path d="M791 3004 c-65 -54 -22 -164 64 -164 51 0 95 44 95 95 0 27 -8 44
-29 66 -39 38 -87 39 -130 3z"/>
<path d="M1119 3001 c-21 -22 -29 -39 -29 -66 0 -27 8 -44 29 -66 l29 -29
1376 0 1375 0 28 24 c23 20 28 32 28 71 0 39 -5 51 -28 71 l-28 24 -1375 0
-1376 0 -29 -29z"/>
<path d="M789 2351 c-39 -40 -40 -93 -2 -133 58 -60 163 -17 163 67 0 27 -8
44 -29 66 -22 21 -39 29 -66 29 -27 0 -44 -8 -66 -29z"/>
<path d="M1119 2351 c-39 -40 -40 -93 -2 -133 l27 -28 1377 0 c1371 0 1376 0
1402 20 49 39 41 131 -12 160 -13 7 -470 10 -1391 10 l-1372 0 -29 -29z"/>
<path d="M789 1701 c-42 -42 -41 -99 2 -135 95 -81 218 47 130 135 -22 21 -39
29 -66 29 -27 0 -44 -8 -66 -29z"/>
<path d="M1119 1701 c-42 -42 -41 -99 2 -135 l31 -26 1372 0 c1361 0 1374 0
1399 20 32 25 43 72 27 111 -26 63 62 59 -1435 59 l-1367 0 -29 -29z"/>
<path d="M789 1051 c-62 -62 -21 -161 66 -161 87 0 128 99 66 161 -41 40 -91
40 -132 0z"/>
<path d="M1119 1051 c-39 -40 -41 -97 -3 -135 l27 -26 1377 0 c1365 0 1378 0
1403 20 32 25 43 72 27 111 -26 63 62 59 -1435 59 l-1367 0 -29 -29z"/>
</g>
</svg>
