<?xml version="1.0" standalone="no"?>
<!DOCTYPE svg PUBLIC "-//W3C//DTD SVG 20010904//EN"
 "http://www.w3.org/TR/2001/REC-SVG-20010904/DTD/svg10.dtd">
<svg version="1.0" xmlns="http://www.w3.org/2000/svg"
 width="100pt" height="100pt" viewBox="0 0 500.000000 500.000000"
 preserveAspectRatio="xMidYMid meet">

<g transform="translate(0.000000,500.000000) scale(0.100000,-0.100000)"
fill="#000000" stroke="none">
<path d="M320 2490 l0 -1930 2195 0 2195 0 0 1930 0 1930 -2195 0 -2195 0 0
-1930z m1460 485 l0 -475 -725 0 -725 0 0 475 0 475 725 0 725 0 0 -475z
m1460 0 l0 -475 -725 0 -725 0 0 475 0 475 725 0 725 0 0 -475z m1460 0 l0
-475 -725 0 -725 0 0 475 0 475 725 0 725 0 0 -475z m-2920 -960 l0 -475 -725
0 -725 0 0 475 0 475 725 0 725 0 0 -475z m1460 0 l0 -475 -725 0 -725 0 0
475 0 475 725 0 725 0 0 -475z m1460 0 l0 -475 -725 0 -725 0 0 475 0 475 725
0 725 0 0 -475z m-2922 -967 l2 -478 -725 0 -725 0 0 480 0 480 723 -2 722 -3
3 -477z m1462 2 l0 -480 -725 0 -725 0 0 480 0 480 725 0 725 0 0 -480z m1460
0 l0 -480 -725 0 -725 0 0 473 c0 261 3 477 7 480 3 4 330 7 725 7 l718 0 0
-480z"/>
<path d="M1075 3151 c-3 -7 -8 -24 -10 -39 -2 -15 -11 -58 -19 -97 -9 -38 -16
-80 -16 -92 0 -12 -7 -23 -17 -25 -13 -3 -10 -6 9 -10 25 -5 28 -2 33 31 4 20
15 78 26 130 12 57 16 98 10 104 -5 5 -11 4 -16 -2z"/>
<path d="M1068 2873 c6 -2 18 -2 25 0 6 3 1 5 -13 5 -14 0 -19 -2 -12 -5z"/>
<path d="M2573 3149 c37 -22 5 -82 -106 -195 -46 -48 -65 -74 -57 -79 6 -4 17
-2 23 4 6 6 27 12 46 12 34 1 34 2 8 8 l-28 6 65 74 c77 87 97 132 70 162 -9
10 -22 19 -28 19 -6 0 -3 -5 7 -11z"/>
<path d="M2459 3123 c-13 -16 -12 -17 4 -4 9 7 17 15 17 17 0 8 -8 3 -21 -13z"/>
<path d="M2543 2883 c9 -2 25 -2 35 0 9 3 1 5 -18 5 -19 0 -27 -2 -17 -5z"/>
<path d="M3991 3153 c26 -6 29 -40 8 -68 -20 -24 -20 -25 1 -53 29 -39 29 -90
0 -114 -24 -19 -79 -24 -98 -8 -7 5 -5 2 3 -8 22 -24 96 -23 124 2 27 24 28
80 2 122 -16 26 -17 33 -5 49 28 38 11 86 -30 84 -16 -1 -17 -2 -5 -6z"/>
</g>
</svg>
